<svg xmlns="http://www.w3.org/2000/svg" width="256" height="256" viewBox="0 0 100 100"><rect width="100" height="100" rx="20" fill="#f6f6f6"></rect><path fill="#778999" d="M31.78 73.13L31.78 73.13Q31.74 73.09 31.21 72.09Q30.68 71.09 29.84 69.51Q29.00 67.93 27.97 65.98Q26.93 64.02 25.88 62.03L25.88 62.03Q24.39 64.02 22.95 65.98Q21.50 67.93 20.37 69.51Q19.24 71.09 18.50 72.09Q17.75 73.09 17.71 73.13L17.71 73.13Q17.44 73.52 16.97 73.52L16.97 73.52Q16.74 73.52 16.66 73.48L16.66 73.48Q15.49 72.89 14.12 72.44Q12.75 71.99 11.33 71.62Q9.90 71.25 8.46 70.92Q7.01 70.59 5.68 70.23L5.68 70.23Q5.29 70.16 5.29 69.84L5.29 69.84Q5.29 69.57 5.61 69.14Q5.92 68.71 6.58 67.81L6.58 67.81L19.51 50.12Q17.17 45.78 14.88 41.60Q12.60 37.42 10.18 32.97L10.18 32.97Q9.75 32.19 9.51 31.76Q9.28 31.33 9.28 31.02L9.28 31.02Q9.28 30.66 9.79 30.55L9.79 30.55Q12.71 29.88 15.78 29.16Q18.85 28.44 21.46 27.30L21.46 27.30Q21.58 27.27 21.82 27.27L21.82 27.27Q22.32 27.27 22.48 27.66L22.48 27.66L28.34 38.28L36.50 27.66Q36.78 27.27 37.25 27.27L37.25 27.27Q37.48 27.27 37.56 27.30L37.56 27.30Q39.94 28.44 42.89 29.16Q45.84 29.88 48.57 30.55L48.57 30.55Q48.96 30.66 48.96 30.90L48.96 30.90Q48.96 31.25 48.65 31.66Q48.34 32.07 47.68 32.97L47.68 32.97Q44.28 37.42 41.07 41.58Q37.87 45.74 34.71 50.12L34.71 50.12L44.08 67.81Q44.47 68.55 44.71 68.98Q44.94 69.41 44.94 69.73L44.94 69.73Q44.94 70.12 44.47 70.23L44.47 70.23Q41.54 70.90 38.48 71.62Q35.41 72.34 32.79 73.48L32.79 73.48Q32.68 73.52 32.44 73.52L32.44 73.52Q32.01 73.52 31.78 73.13ZM69.90 72.89L69.90 72.89Q64.39 72.89 60.23 71.09Q56.07 69.30 53.26 66.31Q50.45 63.32 49.04 59.43Q47.64 55.55 47.64 51.37L47.64 51.37Q47.64 47.19 49.00 43.42Q50.37 39.65 52.83 36.66Q55.29 33.67 58.73 31.66Q62.17 29.65 66.31 28.95L66.31 28.95Q66.93 28.91 66.93 28.67L66.93 28.67Q66.93 28.24 66.84 27.87Q66.74 27.50 66.74 27.23L66.74 27.23Q66.74 26.80 66.89 26.64Q67.05 26.48 67.25 26.48L67.25 26.48Q74.71 26.48 79.94 28.18Q85.18 29.88 88.46 32.81Q91.74 35.74 93.22 39.73Q94.71 43.71 94.71 48.28L94.71 48.28Q94.71 54.10 92.75 58.67Q90.80 63.24 87.42 66.41Q84.04 69.57 79.53 71.23Q75.02 72.89 69.90 72.89ZM62.68 50.94L62.68 50.94Q62.68 53.05 63.13 55.12Q63.57 57.19 64.61 58.87Q65.64 60.55 67.32 61.58Q69.00 62.62 71.50 62.62L71.50 62.62Q73.30 62.54 74.65 61.82Q76.00 61.09 76.97 59.94Q77.95 58.79 78.59 57.34Q79.24 55.90 79.61 54.36Q79.98 52.81 80.14 51.33Q80.29 49.84 80.29 48.63L80.29 48.63Q80.29 46.60 79.69 44.65Q79.08 42.70 77.91 41.21Q76.74 39.73 75 38.81Q73.26 37.89 71.00 37.89L71.00 37.89Q68.65 37.89 67.05 39.28Q65.45 40.66 64.49 42.70Q63.54 44.73 63.11 46.97Q62.68 49.22 62.68 50.94Z"></path></svg>